<svg xmlns="http://www.w3.org/2000/svg" version="1.1" xmlns:xlink="http://www.w3.org/1999/xlink" xmlns:svgjs="http://svgjs.dev/svgjs" width="1440" height="800" preserveAspectRatio="none" viewBox="0 0 1440 800"><g mask="url(&quot;#SvgjsMask1047&quot;)" fill="none"><rect width="1440" height="800" x="0" y="0" fill="#0e2a47"></rect><path d="M93 800L893 0L1559 0L759 800z" fill="url(&quot;#SvgjsLinearGradient1048&quot;)"></path><path d="M476.20000000000005 800L1276.2 0L1892.7 0L1092.7 800z" fill="url(&quot;#SvgjsLinearGradient1048&quot;)"></path><path d="M1407 800L607 0L379 0L1179 800z" fill="url(&quot;#SvgjsLinearGradient1049&quot;)"></path><path d="M913.8 800L113.79999999999995 0L-430.70000000000005 0L369.29999999999995 800z" fill="url(&quot;#SvgjsLinearGradient1049&quot;)"></path><path d="M1002.0170986490168 800L1440 362.0170986490169L1440 800z" fill="url(&quot;#SvgjsLinearGradient1048&quot;)"></path><path d="M0 800L437.9829013509831 800L 0 362.0170986490169z" fill="url(&quot;#SvgjsLinearGradient1049&quot;)"></path></g><defs><mask id="SvgjsMask1047"><rect width="1440" height="800" fill="#ffffff"></rect></mask><linearGradient x1="0%" y1="100%" x2="100%" y2="0%" id="SvgjsLinearGradient1048"><stop stop-color="rgba(15, 70, 185, 0.2)" offset="0"></stop><stop stop-opacity="0" stop-color="rgba(15, 70, 185, 0.2)" offset="0.66"></stop></linearGradient><linearGradient x1="100%" y1="100%" x2="0%" y2="0%" id="SvgjsLinearGradient1049"><stop stop-color="rgba(15, 70, 185, 0.2)" offset="0"></stop><stop stop-opacity="0" stop-color="rgba(15, 70, 185, 0.2)" offset="0.66"></stop></linearGradient></defs></svg>